P3
5 5
255

255 255 255
255 0 0
255 128 0
0 0 0
128 255 0
255 255 255
255 0 0
255 128 0
255 255 0
128 255 0
255 255 255
255 0 0
0 0 0
255 255 0
128 255 0
255 255 255
255 0 0
255 128 0
255 255 0
128 255 0
255 255 255
255 0 0
255 128 0
255 255 0
128 255 0