P3
3 3
255
240 68 70
255 255 0
0 128 0
255 255 255
255 255 255
255 255 255
0 0 0
0 0 0
0 0 0

