P3
80 50
255
255 255 255
255 255 255
255 255 255
255 255 255
255 255 255
255 255 255
255 255 255
255 255 255
255 255 255
255 255 255
255 255 255
255 255 255
255 255 255
255 255 255
255 255 255
255 255 255
255 255 255
255 255 255
255 255 255
255 255 255
255 255 255
255 255 255
255 255 255
255 255 255
255 255 255
255 255 255
255 255 255
255 255 255
255 255 255
255 255 255
255 255 255
255 255 255
255 255 255
255 255 255
255 255 255
255 255 255
255 255 255
255 255 255
255 255 255
255 255 255
255 255 255
255 255 255
255 255 255
255 255 255
255 255 255
255 255 255
255 255 255
255 255 255
255 255 255
255 255 255
255 255 255
255 255 255
255 255 255
255 255 255
255 255 255
255 255 255
255 255 255
255 255 255
255 255 255
255 255 255
255 255 255
255 255 255
255 255 255
255 255 255
255 255 255
255 255 255
255 255 255
255 255 255
255 255 255
255 255 255
255 255 255
255 255 255
255 255 255
255 255 255
255 255 255
255 255 255
255 255 255
255 255 255
255 255 255
255 255 255
255 255 255
255 255 255
255 255 255
255 255 255
255 255 255
255 255 255
255 255 255
255 255 255
255 255 255
255 255 255
255 255 255
255 255 255
255 255 255
255 255 255
255 255 255
255 255 255
255 255 255
255 255 255
255 255 255
255 255 255
255 255 255
255 255 255
255 255 255
255 255 255
255 255 255
255 255 255
255 255 255
255 255 255
255 255 255
255 255 255
255 255 255
255 255 255
255 255 255
255 255 255
255 255 255
255 255 255
255 255 255
255 255 255
255 255 255
255 255 255
255 255 255
255 255 255
255 255 255
255 255 255
255 255 255
255 255 255
255 255 255
255 255 255
255 255 255
255 255 255
255 255 255
255 255 255
255 255 255
255 255 255
255 255 255
255 255 255
255 255 255
255 255 255
255 255 255
255 255 255
255 255 255
255 255 255
255 255 255
255 255 255
255 255 255
255 255 255
255 255 255
255 255 255
255 255 255
255 255 255
255 255 255
255 255 255
255 255 255
255 255 255
255 255 255
255 255 255
255 255 255
255 255 255
255 255 255
255 255 255
255 255 255
255 255 255
255 255 255
255 255 255
255 255 255
255 255 255
255 255 255
255 255 255
255 255 255
255 255 255
255 255 255
255 255 255
255 255 255
255 255 255
255 255 255
255 255 255
255 255 255
255 255 255
255 255 255
255 255 255
255 255 255
255 255 255
255 255 255
255 255 255
255 255 255
255 255 255
255 255 255
255 255 255
255 255 255
255 255 255
255 255 255
255 255 255
255 255 255
255 255 255
255 255 255
255 255 255
255 255 255
255 255 255
255 255 255
255 255 255
255 255 255
255 255 255
255 255 255
255 255 255
255 255 255
255 255 255
255 255 255
255 255 255
255 255 255
255 255 255
255 255 255
255 255 255
255 255 255
255 255 255
255 255 255
255 255 255
255 255 255
255 255 255
255 255 255
255 255 255
255 255 255
255 255 255
255 255 255
255 255 255
255 255 255
255 255 255
255 255 255
255 255 255
255 255 255
255 255 255
255 255 255
255 255 255
255 255 255
255 255 255
255 255 255
255 255 255
255 255 255
255 255 255
255 255 255
255 255 255
255 255 255
255 255 255
255 255 255
255 255 255
255 255 255
255 255 255
255 255 255
255 255 255
255 255 255
255 255 255
255 255 255
255 255 255
255 255 255
255 255 255
255 255 255
255 255 255
255 255 255
255 255 255
255 255 255
255 255 255
255 255 255
255 255 255
255 255 255
255 255 255
255 255 255
255 255 255
255 255 255
255 255 255
255 255 255
255 255 255
255 255 255
255 255 255
255 255 255
255 255 255
255 255 255
255 255 255
255 255 255
255 255 255
255 255 255
255 255 255
255 255 255
255 255 255
255 255 255
255 255 255
255 255 255
255 255 255
255 255 255
255 255 255
255 255 255
255 255 255
255 255 255
255 255 255
255 255 255
255 255 255
255 255 255
255 255 255
255 255 255
255 255 255
255 255 255
255 255 255
255 255 255
255 255 255
255 255 255
255 255 255
255 255 255
255 255 255
255 255 255
255 255 255
255 255 255
255 255 255
255 255 255
255 255 255
255 255 255
255 255 255
255 255 255
255 255 255
255 255 255
255 255 255
255 255 255
255 255 255
255 255 255
255 255 255
255 255 255
255 255 255
255 255 255
255 255 255
255 255 255
255 255 255
255 255 255
255 255 255
255 255 255
255 255 255
255 255 255
255 255 255
255 255 255
255 255 255
255 255 255
255 255 255
255 255 255
255 255 255
255 255 255
255 255 255
255 255 255
255 255 255
255 255 255
255 255 255
255 255 255
255 255 255
255 255 255
255 255 255
255 255 255
255 255 255
255 255 255
255 255 255
255 255 255
255 255 255
255 255 255
255 255 255
255 255 255
255 255 255
255 255 255
255 255 255
255 255 255
255 255 255
255 255 255
255 255 255
255 255 255
255 255 255
255 255 255
255 255 255
255 255 255
255 255 255
255 255 255
255 255 255
255 255 255
255 255 255
255 255 255
255 255 255
255 255 255
255 255 255
255 255 255
255 255 255
255 255 255
255 255 255
255 255 255
255 255 255
255 255 255
255 255 255
255 255 255
255 255 255
255 255 255
255 255 255
255 255 255
255 255 255
255 255 255
255 255 255
255 255 255
255 255 255
255 255 255
255 255 255
255 255 255
255 255 255
255 255 255
255 255 255
255 255 255
255 255 255
255 255 255
255 255 255
255 255 255
255 255 255
255 255 255
255 255 255
255 255 255
255 255 255
255 255 255
255 255 255
255 255 255
255 255 255
255 255 255
255 255 255
255 255 255
255 255 255
255 255 255
255 255 255
255 255 255
255 255 255
255 255 255
255 255 255
255 255 255
255 255 255
255 255 255
255 255 255
255 255 255
255 255 255
255 255 255
255 255 255
255 255 255
255 255 255
255 255 255
255 255 255
255 255 255
255 255 255
255 255 255
255 255 255
255 255 255
255 255 255
255 255 255
255 255 255
255 255 255
255 255 255
255 255 255
255 255 255
255 255 255
255 255 255
255 255 255
255 255 255
255 255 255
255 255 255
255 255 255
255 255 255
255 255 255
255 255 255
255 255 255
255 255 255
255 255 255
255 255 255
255 255 255
255 255 255
255 255 255
255 255 255
255 255 255
255 255 255
255 255 255
255 255 255
255 255 255
255 255 255
255 255 255
255 255 255
255 255 255
255 255 255
255 255 255
255 255 255
255 255 255
255 255 255
255 255 255
255 255 255
255 255 255
255 255 255
255 255 255
255 255 255
255 255 255
255 255 255
255 255 255
255 255 255
255 255 255
255 255 255
255 255 255
255 255 255
255 255 255
255 255 255
255 255 255
255 255 255
255 255 255
255 255 255
255 255 255
255 255 255
255 255 255
255 255 255
255 255 255
255 255 255
255 255 255
255 255 255
255 255 255
255 255 255
255 255 255
255 255 255
255 255 255
255 255 255
255 255 255
255 255 255
255 255 255
255 255 255
255 255 255
255 255 255
255 255 255
255 255 255
255 255 255
255 255 255
255 255 255
255 255 255
255 255 255
255 255 255
255 255 255
255 255 255
255 255 255
255 255 255
255 255 255
255 255 255
255 255 255
255 255 255
255 255 255
255 255 255
255 255 255
255 255 255
255 255 255
255 255 255
255 255 255
255 255 255
255 255 255
255 255 255
255 255 255
255 255 255
255 255 255
255 255 255
255 255 255
255 255 255
255 255 255
255 255 255
255 255 255
255 255 255
255 255 255
255 255 255
255 255 255
255 255 255
255 255 255
255 255 255
255 255 255
255 255 255
255 255 255
255 255 255
255 255 255
255 255 255
255 255 255
255 255 255
255 255 255
255 255 255
255 255 255
255 255 255
255 255 255
255 255 255
255 255 255
255 255 255
255 255 255
255 255 255
255 255 255
255 255 255
255 255 255
255 255 255
255 255 255
255 255 255
255 255 255
255 255 255
255 255 255
255 255 255
255 255 255
255 255 255
255 255 255
255 255 255
255 255 255
255 255 255
255 255 255
255 255 255
255 255 255
255 255 255
255 255 255
255 255 255
255 255 255
255 255 255
255 255 255
255 255 255
255 255 255
255 255 255
255 255 255
255 255 255
255 255 255
255 255 255
255 255 255
255 255 255
255 255 255
255 255 255
255 255 255
255 255 255
255 255 255
255 255 255
255 255 255
255 255 255
255 255 255
255 255 255
255 255 255
255 255 255
255 255 255
255 255 255
255 255 255
255 255 255
255 255 255
255 255 255
255 255 255
255 255 255
255 255 255
255 255 255
255 255 255
255 255 255
255 255 255
255 255 255
255 255 255
255 255 255
255 255 255
255 255 255
255 255 255
255 255 255
255 255 255
255 255 255
255 255 255
255 255 255
255 255 255
255 255 255
255 255 255
255 255 255
255 255 255
255 255 255
255 255 255
255 255 255
255 255 255
255 255 255
255 255 255
255 255 255
255 255 255
255 255 255
255 255 255
255 255 255
255 255 255
255 255 255
255 255 255
255 255 255
255 255 255
255 255 255
255 255 255
255 255 255
255 255 255
255 255 255
255 255 255
255 255 255
255 255 255
255 255 255
255 255 255
255 255 255
255 255 255
255 255 255
255 255 255
255 255 255
255 255 255
255 255 255
255 255 255
255 255 255
255 255 255
255 255 255
255 255 255
255 255 255
255 255 255
255 255 255
255 255 255
255 255 255
255 255 255
255 255 255
255 255 255
255 255 255
255 255 255
255 255 255
255 255 255
255 255 255
255 255 255
255 255 255
255 255 255
255 255 255
255 255 255
255 255 255
255 255 255
255 255 255
255 255 255
255 255 255
255 255 255
255 255 255
255 255 255
255 255 255
255 255 255
255 255 255
255 255 255
255 255 255
255 255 255
255 255 255
255 255 255
255 255 255
255 255 255
255 255 255
255 255 255
255 255 255
255 255 255
255 255 255
255 255 255
255 255 255
255 255 255
255 255 255
255 255 255
255 255 255
255 255 255
255 255 255
255 255 255
255 255 255
255 255 255
255 255 255
255 255 255
255 255 255
255 255 255
255 255 255
255 255 255
255 255 255
255 255 255
255 255 255
255 255 255
255 255 255
255 255 255
255 255 255
255 255 255
255 255 255
255 255 255
255 255 255
255 255 255
255 255 255
255 255 255
255 255 255
255 255 255
255 255 255
255 255 255
255 255 255
255 255 255
255 255 255
255 255 255
255 255 255
255 255 255
255 255 255
255 255 255
255 255 255
255 255 255
255 255 255
255 255 255
255 255 255
255 255 255
255 255 255
255 255 255
255 255 255
255 255 255
255 255 255
255 255 255
255 255 255
255 255 255
255 255 255
255 255 255
255 255 255
255 255 255
255 255 255
255 255 255
255 255 255
255 255 255
255 255 255
255 255 255
255 255 255
255 255 255
255 255 255
255 255 255
255 255 255
255 255 255
255 255 255
255 255 255
255 255 255
255 255 255
255 255 255
255 255 255
255 255 255
255 255 255
255 255 255
255 255 255
255 255 255
255 255 255
255 255 255
255 255 255
255 255 255
255 255 255
255 255 255
255 255 255
255 255 255
255 255 255
255 255 255
255 255 255
255 255 255
255 255 255
255 255 255
255 255 255
255 255 255
255 255 255
255 255 255
255 255 255
255 255 255
255 255 255
255 255 255
255 255 255
255 255 255
255 255 255
255 255 255
255 255 255
255 255 255
255 255 255
255 255 255
255 255 255
255 255 255
255 255 255
255 255 255
255 255 255
255 255 255
255 255 255
255 255 255
255 255 255
255 255 255
255 255 255
255 255 255
255 255 255
255 255 255
255 255 255
255 255 255
255 255 255
255 255 255
255 255 255
255 255 255
255 255 255
255 255 255
255 255 255
255 255 255
255 255 255
255 255 255
255 255 255
255 255 255
255 255 255
255 255 255
255 255 255
255 255 255
255 255 255
255 255 255
255 255 255
255 255 255
255 255 255
255 255 255
255 255 255
255 255 255
255 255 255
255 255 255
255 255 255
255 255 255
255 255 255
255 255 255
255 255 255
255 255 255
255 255 255
255 255 255
255 255 255
255 255 255
255 255 255
255 255 255
255 255 255
255 255 255
255 255 255
255 255 255
255 255 255
255 255 255
255 255 255
255 255 255
255 255 255
255 255 255
255 255 255
255 255 255
255 255 255
255 255 255
255 255 255
255 255 255
255 255 255
255 255 255
255 255 255
255 255 255
255 255 255
255 255 255
255 255 255
255 255 255
255 255 255
255 255 255
255 255 255
255 255 255
255 255 255
255 255 255
255 255 255
255 255 255
255 255 255
255 255 255
255 255 255
255 255 255
255 255 255
255 255 255
255 255 255
255 255 255
255 255 255
255 255 255
255 255 255
255 255 255
255 255 255
255 255 255
255 255 255
255 255 255
255 255 255
255 255 255
255 255 255
255 255 255
255 255 255
255 255 255
255 255 255
255 255 255
255 255 255
255 255 255
255 255 255
255 255 255
255 255 255
255 255 255
255 255 255
255 255 255
255 255 255
255 255 255
255 255 255
255 255 255
255 255 255
255 255 255
255 255 255
255 255 255
255 255 255
255 255 255
255 255 255
255 255 255
255 255 255
255 255 255
255 255 255
255 255 255
255 255 255
255 255 255
255 255 255
255 255 255
255 255 255
255 255 255
255 255 255
255 255 255
255 255 255
255 255 255
255 255 255
255 255 255
255 255 255
255 255 255
255 255 255
255 255 255
255 255 255
255 255 255
255 255 255
255 255 255
255 255 255
255 255 255
255 255 255
255 255 255
255 255 255
255 255 255
255 255 255
255 255 255
255 255 255
255 255 255
255 255 255
255 255 255
255 255 255
255 255 255
255 255 255
255 255 255
255 255 255
255 255 255
255 255 255
255 255 255
255 255 255
255 255 255
255 255 255
255 255 255
255 255 255
255 255 255
255 255 255
255 255 255
255 255 255
255 255 255
255 255 255
255 255 255
255 255 255
255 255 255
255 255 255
255 255 255
255 255 255
255 255 255
255 255 255
255 255 255
255 255 255
255 255 255
255 255 255
255 255 255
255 255 255
255 255 255
255 255 255
255 255 255
255 255 255
255 255 255
255 255 255
255 255 255
255 255 255
255 255 255
255 255 255
255 255 255
255 255 255
255 255 255
255 255 255
255 255 255
255 255 255
255 255 255
255 255 255
255 255 255
255 255 255
255 255 255
255 255 255
255 255 255
255 255 255
255 255 255
255 255 255
255 255 255
255 255 255
255 255 255
255 255 255
255 255 255
255 255 255
255 255 255
255 255 255
255 255 255
255 255 255
255 255 255
255 255 255
255 255 255
255 255 255
255 255 255
255 255 255
255 255 255
255 255 255
255 255 255
255 255 255
255 255 255
255 255 255
255 255 255
255 255 255
255 255 255
255 255 255
255 255 255
255 255 255
255 255 255
255 255 255
255 255 255
255 255 255
255 255 255
255 255 255
255 255 255
255 255 255
255 255 255
255 255 255
255 255 255
255 255 255
255 255 255
255 255 255
255 255 255
255 255 255
255 255 255
255 255 255
255 255 255
255 255 255
255 255 255
255 255 255
255 255 255
255 255 255
255 255 255
255 255 255
255 255 255
255 255 255
255 255 255
255 255 255
255 255 255
255 255 255
255 255 255
255 255 255
255 255 255
255 255 255
255 255 255
255 255 255
255 255 255
255 255 255
255 255 255
255 255 255
255 255 255
255 255 255
255 255 255
255 255 255
255 255 255
255 255 255
255 255 255
255 255 255
255 255 255
255 255 255
255 255 255
255 255 255
255 255 255
255 255 255
255 255 255
255 255 255
255 255 255
255 255 255
255 255 255
255 255 255
255 255 255
255 255 255
255 255 255
255 255 255
255 255 255
255 255 255
255 255 255
255 255 255
255 255 255
255 255 255
255 255 255
255 255 255
255 255 255
255 255 255
255 255 255
255 255 255
255 255 255
255 255 255
255 255 255
255 255 255
255 255 255
255 255 255
255 255 255
255 255 255
255 255 255
255 255 255
255 255 255
255 255 255
255 255 255
255 255 255
255 255 255
255 255 255
255 255 255
255 255 255
255 255 255
255 255 255
255 255 255
255 255 255
255 255 255
255 255 255
255 255 255
255 255 255
255 255 255
255 255 255
255 255 255
255 255 255
255 255 255
255 255 255
255 255 255
255 255 255
255 255 255
255 255 255
255 255 255
255 255 255
255 255 255
255 255 255
255 255 255
255 255 255
255 255 255
255 255 255
255 255 255
255 255 255
255 255 255
255 255 255
255 255 255
255 255 255
255 255 255
255 255 255
255 255 255
255 255 255
255 255 255
255 255 255
255 255 255
255 255 255
255 255 255
255 255 255
255 255 255
255 255 255
255 255 255
255 255 255
255 255 255
255 255 255
255 255 255
255 255 255
255 255 255
255 255 255
255 255 255
255 255 255
255 255 255
255 255 255
255 255 255
255 255 255
255 255 255
255 255 255
255 255 255
255 255 255
255 255 255
255 255 255
255 255 255
255 255 255
255 255 255
255 255 255
255 255 255
255 255 255
255 255 255
255 255 255
255 255 255
255 255 255
255 255 255
255 255 255
255 255 255
255 255 255
255 255 255
255 255 255
255 255 255
255 255 255
255 255 255
255 255 255
255 255 255
255 255 255
255 255 255
255 255 255
255 255 255
255 255 255
255 255 255
255 255 255
255 255 255
255 255 255
255 255 255
255 255 255
255 255 255
255 255 255
255 255 255
255 255 255
255 255 255
255 255 255
255 255 255
255 255 255
255 255 255
255 255 255
255 255 255
255 255 255
255 255 255
255 255 255
255 255 255
255 255 255
255 255 255
255 255 255
255 255 255
255 255 255
255 255 255
255 255 255
255 255 255
255 255 255
255 255 255
255 255 255
255 255 255
255 255 255
255 255 255
255 255 255
255 255 255
255 255 255
255 255 255
255 255 255
255 255 255
255 255 255
255 255 255
255 255 255
255 255 255
255 255 255
255 255 255
255 255 255
255 255 255
255 255 255
255 255 255
255 255 255
255 255 255
255 255 255
255 255 255
255 255 255
255 255 255
255 255 255
255 255 255
255 255 255
255 255 255
255 255 255
255 255 255
255 255 255
255 255 255
255 255 255
255 255 255
255 255 255
255 255 255
255 255 255
255 255 255
255 255 255
255 255 255
255 255 255
255 255 255
255 255 255
255 255 255
255 255 255
255 255 255
255 255 255
255 255 255
255 255 255
255 255 255
255 255 255
255 255 255
255 255 255
255 255 255
255 255 255
255 255 255
255 255 255
255 255 255
255 255 255
255 255 255
255 255 255
255 255 255
255 255 255
255 255 255
255 255 255
255 255 255
255 255 255
255 255 255
255 255 255
255 255 255
255 255 255
255 255 255
255 255 255
255 255 255
255 255 255
255 255 255
255 255 255
255 255 255
255 255 255
255 255 255
255 255 255
255 255 255
255 255 255
255 255 255
255 255 255
255 255 255
255 255 255
255 255 255
255 255 255
255 255 255
255 255 255
255 255 255
255 255 255
255 255 255
255 255 255
255 255 255
255 255 255
255 255 255
255 255 255
255 255 255
255 255 255
255 255 255
255 255 255
255 255 255
255 255 255
255 255 255
255 255 255
255 255 255
255 255 255
255 255 255
255 255 255
255 255 255
255 255 255
255 255 255
255 255 255
255 255 255
255 255 255
255 255 255
255 255 255
255 255 255
255 255 255
255 255 255
255 255 255
255 255 255
255 255 255
255 255 255
255 255 255
255 255 255
255 255 255
255 255 255
255 255 255
255 255 255
255 255 255
255 255 255
255 255 255
255 255 255
255 255 255
255 255 255
255 255 255
255 255 255
255 255 255
255 255 255
255 255 255
255 255 255
255 255 255
255 255 255
255 255 255
255 255 255
255 255 255
255 255 255
255 255 255
255 255 255
255 255 255
255 255 255
255 255 255
255 255 255
255 255 255
255 255 255
255 255 255
255 255 255
255 255 255
255 255 255
255 255 255
255 255 255
255 255 255
255 255 255
255 255 255
255 255 255
255 255 255
255 255 255
255 255 255
255 255 255
255 255 255
255 255 255
255 255 255
255 255 255
255 255 255
255 255 255
255 255 255
255 255 255
255 255 255
255 255 255
255 255 255
255 255 255
255 255 255
255 255 255
255 255 255
255 255 255
255 255 255
255 255 255
255 255 255
255 255 255
255 255 255
255 255 255
255 255 255
255 255 255
255 255 255
255 255 255
255 255 255
255 255 255
255 255 255
255 255 255
255 255 255
255 255 255
255 255 255
255 255 255
255 255 255
255 255 255
255 255 255
255 255 255
255 255 255
255 255 255
255 255 255
255 255 255
255 255 255
255 255 255
255 255 255
255 255 255
255 255 255
255 255 255
255 255 255
255 255 255
255 255 255
255 255 255
255 255 255
255 255 255
255 255 255
255 255 255
255 255 255
255 255 255
255 255 255
255 255 255
255 255 255
255 255 255
255 255 255
255 255 255
255 255 255
255 255 255
255 255 255
255 255 255
255 255 255
255 255 255
255 255 255
255 255 255
255 255 255
255 255 255
255 255 255
255 255 255
255 255 255
255 255 255
255 255 255
255 255 255
255 255 255
255 255 255
255 255 255
255 255 255
255 255 255
255 255 255
255 255 255
255 255 255
255 255 255
255 255 255
255 255 255
255 255 255
255 255 255
255 255 255
255 255 255
255 255 255
255 255 255
255 255 255
255 255 255
255 255 255
255 255 255
255 255 255
255 255 255
255 255 255
255 255 255
255 255 255
255 255 255
255 255 255
255 255 255
255 255 255
255 255 255
255 255 255
255 255 255
255 255 255
255 255 255
255 255 255
255 255 255
255 255 255
255 255 255
255 255 255
255 255 255
255 255 255
255 255 255
255 255 255
255 255 255
255 255 255
255 255 255
255 255 255
255 255 255
255 255 255
255 255 255
255 255 255
255 255 255
255 255 255
255 255 255
255 255 255
255 255 255
255 255 255
255 255 255
255 255 255
255 255 255
255 255 255
255 255 255
255 255 255
255 255 255
255 255 255
255 255 255
255 255 255
255 255 255
255 255 255
255 255 255
255 255 255
255 255 255
255 255 255
255 255 255
255 255 255
255 255 255
255 255 255
255 255 255
255 255 255
255 255 255
255 255 255
255 255 255
255 255 255
255 255 255
255 255 255
255 255 255
255 255 255
255 255 255
255 255 255
255 255 255
255 255 255
255 255 255
255 255 255
255 255 255
255 255 255
255 255 255
255 255 255
255 255 255
255 255 255
255 255 255
255 255 255
255 255 255
255 255 255
255 255 255
255 255 255
255 255 255
255 255 255
255 255 255
255 255 255
255 255 255
255 255 255
255 255 255
255 255 255
255 255 255
255 255 255
255 255 255
255 255 255
255 255 255
255 255 255
255 255 255
255 255 255
255 255 255
255 255 255
255 255 255
255 255 255
255 255 255
255 255 255
255 255 255
255 255 255
255 255 255
255 255 255
255 255 255
255 255 255
255 255 255
255 255 255
255 255 255
255 255 255
255 255 255
255 255 255
255 255 255
255 255 255
255 255 255
255 255 255
255 255 255
255 255 255
255 255 255
255 255 255
255 255 255
255 255 255
255 255 255
255 255 255
255 255 255
255 255 255
255 255 255
255 255 255
255 255 255
255 255 255
255 255 255
255 255 255
255 255 255
255 255 255
255 255 255
255 255 255
255 255 255
255 255 255
255 255 255
255 255 255
255 255 255
255 255 255
255 255 255
255 255 255
255 255 255
255 255 255
255 255 255
255 255 255
255 255 255
255 255 255
255 255 255
255 255 255
255 255 255
255 255 255
255 255 255
255 255 255
255 255 255
255 255 255
255 255 255
255 255 255
255 255 255
255 255 255
255 255 255
255 255 255
255 255 255
255 255 255
255 255 255
255 255 255
255 255 255
255 255 255
255 255 255
255 255 255
255 255 255
255 255 255
255 255 255
255 255 255
255 255 255
255 255 255
255 255 255
255 255 255
255 255 255
255 255 255
255 255 255
255 255 255
255 255 255
255 255 255
255 255 255
255 255 255
255 255 255
255 255 255
255 255 255
255 255 255
255 255 255
255 255 255
255 255 255
255 255 255
255 255 255
255 255 255
255 255 255
255 255 255
255 255 255
255 255 255
255 255 255
255 255 255
255 255 255
255 255 255
255 255 255
255 255 255
255 255 255
255 255 255
255 255 255
255 255 255
255 255 255
255 255 255
255 255 255
255 255 255
255 255 255
255 255 255
255 255 255
255 255 255
255 255 255
255 255 255
255 255 255
255 255 255
255 255 255
255 255 255
255 255 255
255 255 255
255 255 255
255 255 255
255 255 255
255 255 255
255 255 255
255 255 255
255 255 255
255 255 255
255 255 255
255 255 255
255 255 255
255 255 255
255 255 255
255 255 255
255 255 255
255 255 255
255 255 255
255 255 255
255 255 255
255 255 255
255 255 255
255 255 255
255 255 255
255 255 255
255 255 255
255 255 255
255 255 255
255 255 255
255 255 255
255 255 255
255 255 255
255 255 255
255 255 255
255 255 255
255 255 255
255 255 255
255 255 255
255 255 255
255 255 255
255 255 255
255 255 255
255 255 255
255 255 255
255 255 255
255 255 255
255 255 255
255 255 255
255 255 255
255 255 255
255 255 255
255 255 255
255 255 255
255 255 255
255 255 255
255 255 255
255 255 255
255 255 255
255 255 255
255 255 255
255 255 255
255 255 255
255 255 255
255 255 255
255 255 255
255 255 255
255 255 255
255 255 255
255 255 255
255 255 255
255 255 255
255 255 255
255 255 255
255 255 255
255 255 255
255 255 255
255 255 255
255 255 255
255 255 255
255 255 255
255 255 255
255 255 255
255 255 255
255 255 255
255 255 255
255 255 255
255 255 255
255 255 255
255 255 255
255 255 255
255 255 255
255 255 255
255 255 255
255 255 255
255 255 255
255 255 255
255 255 255
255 255 255
255 255 255
255 255 255
255 255 255
255 255 255
255 255 255
255 255 255
255 255 255
255 255 255
255 255 255
255 255 255
255 255 255
255 255 255
255 255 255
255 255 255
255 255 255
255 255 255
255 255 255
255 255 255
255 255 255
255 255 255
255 255 255
255 255 255
255 255 255
255 255 255
255 255 255
255 255 255
255 255 255
255 255 255
255 255 255
255 255 255
255 255 255
255 255 255
255 255 255
255 255 255
255 255 255
255 255 255
255 255 255
255 255 255
255 255 255
255 255 255
255 255 255
255 255 255
255 255 255
255 255 255
255 255 255
255 255 255
255 255 255
255 255 255
255 255 255
255 255 255
255 255 255
255 255 255
255 255 255
255 255 255
255 255 255
255 255 255
255 255 255
255 255 255
255 255 255
255 255 255
255 255 255
255 255 255
255 255 255
255 255 255
255 255 255
255 255 255
255 255 255
255 255 255
255 255 255
255 255 255
255 255 255
212 33 61
212 33 61
212 33 61
212 33 61
212 33 61
212 33 61
212 33 61
212 33 61
212 33 61
212 33 61
212 33 61
212 33 61
212 33 61
212 33 61
212 33 61
212 33 61
212 33 61
212 33 61
212 33 61
212 33 61
212 33 61
212 33 61
212 33 61
212 33 61
212 33 61
212 33 61
212 33 61
212 33 61
212 33 61
212 33 61
212 33 61
212 33 61
212 33 61
212 33 61
212 33 61
212 33 61
212 33 61
212 33 61
212 33 61
212 33 61
212 33 61
212 33 61
212 33 61
212 33 61
212 33 61
212 33 61
212 33 61
212 33 61
212 33 61
212 33 61
212 33 61
212 33 61
212 33 61
212 33 61
212 33 61
212 33 61
212 33 61
212 33 61
212 33 61
212 33 61
212 33 61
212 33 61
212 33 61
212 33 61
212 33 61
212 33 61
212 33 61
212 33 61
212 33 61
212 33 61
212 33 61
212 33 61
212 33 61
212 33 61
212 33 61
212 33 61
212 33 61
212 33 61
212 33 61
212 33 61
212 33 61
212 33 61
212 33 61
212 33 61
212 33 61
212 33 61
212 33 61
212 33 61
212 33 61
212 33 61
212 33 61
212 33 61
212 33 61
212 33 61
212 33 61
212 33 61
212 33 61
212 33 61
212 33 61
212 33 61
212 33 61
212 33 61
212 33 61
212 33 61
212 33 61
212 33 61
212 33 61
212 33 61
212 33 61
212 33 61
212 33 61
212 33 61
212 33 61
212 33 61
212 33 61
212 33 61
212 33 61
212 33 61
212 33 61
212 33 61
212 33 61
212 33 61
212 33 61
212 33 61
212 33 61
212 33 61
212 33 61
212 33 61
212 33 61
212 33 61
212 33 61
212 33 61
212 33 61
212 33 61
212 33 61
212 33 61
212 33 61
212 33 61
212 33 61
212 33 61
212 33 61
212 33 61
212 33 61
212 33 61
212 33 61
212 33 61
212 33 61
212 33 61
212 33 61
212 33 61
212 33 61
212 33 61
212 33 61
212 33 61
212 33 61
212 33 61
212 33 61
212 33 61
212 33 61
212 33 61
212 33 61
212 33 61
212 33 61
212 33 61
212 33 61
212 33 61
212 33 61
212 33 61
212 33 61
212 33 61
212 33 61
212 33 61
212 33 61
212 33 61
212 33 61
212 33 61
212 33 61
212 33 61
212 33 61
212 33 61
212 33 61
212 33 61
212 33 61
212 33 61
212 33 61
212 33 61
212 33 61
212 33 61
212 33 61
212 33 61
212 33 61
212 33 61
212 33 61
212 33 61
212 33 61
212 33 61
212 33 61
212 33 61
212 33 61
212 33 61
212 33 61
212 33 61
212 33 61
212 33 61
212 33 61
212 33 61
212 33 61
212 33 61
212 33 61
212 33 61
212 33 61
212 33 61
212 33 61
212 33 61
212 33 61
212 33 61
212 33 61
212 33 61
212 33 61
212 33 61
212 33 61
212 33 61
212 33 61
212 33 61
212 33 61
212 33 61
212 33 61
212 33 61
212 33 61
212 33 61
212 33 61
212 33 61
212 33 61
212 33 61
212 33 61
212 33 61
212 33 61
212 33 61
212 33 61
212 33 61
212 33 61
212 33 61
212 33 61
212 33 61
212 33 61
212 33 61
212 33 61
212 33 61
212 33 61
212 33 61
212 33 61
212 33 61
212 33 61
212 33 61
212 33 61
212 33 61
212 33 61
212 33 61
212 33 61
212 33 61
212 33 61
212 33 61
212 33 61
212 33 61
212 33 61
212 33 61
212 33 61
212 33 61
212 33 61
212 33 61
212 33 61
212 33 61
212 33 61
212 33 61
212 33 61
212 33 61
212 33 61
212 33 61
212 33 61
212 33 61
212 33 61
212 33 61
212 33 61
212 33 61
212 33 61
212 33 61
212 33 61
212 33 61
212 33 61
212 33 61
212 33 61
212 33 61
212 33 61
212 33 61
212 33 61
212 33 61
212 33 61
212 33 61
212 33 61
212 33 61
212 33 61
212 33 61
212 33 61
212 33 61
212 33 61
212 33 61
212 33 61
212 33 61
212 33 61
212 33 61
212 33 61
212 33 61
212 33 61
212 33 61
212 33 61
212 33 61
212 33 61
212 33 61
212 33 61
212 33 61
212 33 61
212 33 61
212 33 61
212 33 61
212 33 61
212 33 61
212 33 61
212 33 61
212 33 61
212 33 61
212 33 61
212 33 61
212 33 61
212 33 61
212 33 61
212 33 61
212 33 61
212 33 61
212 33 61
212 33 61
212 33 61
212 33 61
212 33 61
212 33 61
212 33 61
212 33 61
212 33 61
212 33 61
212 33 61
212 33 61
212 33 61
212 33 61
212 33 61
212 33 61
212 33 61
212 33 61
212 33 61
212 33 61
212 33 61
212 33 61
212 33 61
212 33 61
212 33 61
212 33 61
212 33 61
212 33 61
212 33 61
212 33 61
212 33 61
212 33 61
212 33 61
212 33 61
212 33 61
212 33 61
212 33 61
212 33 61
212 33 61
212 33 61
212 33 61
212 33 61
212 33 61
212 33 61
212 33 61
212 33 61
212 33 61
212 33 61
212 33 61
212 33 61
212 33 61
212 33 61
212 33 61
212 33 61
212 33 61
212 33 61
212 33 61
212 33 61
212 33 61
212 33 61
212 33 61
212 33 61
212 33 61
212 33 61
212 33 61
212 33 61
212 33 61
212 33 61
212 33 61
212 33 61
212 33 61
212 33 61
212 33 61
212 33 61
212 33 61
212 33 61
212 33 61
212 33 61
212 33 61
212 33 61
212 33 61
212 33 61
212 33 61
212 33 61
212 33 61
212 33 61
212 33 61
212 33 61
212 33 61
212 33 61
212 33 61
212 33 61
212 33 61
212 33 61
212 33 61
212 33 61
212 33 61
212 33 61
212 33 61
212 33 61
212 33 61
212 33 61
212 33 61
212 33 61
212 33 61
212 33 61
212 33 61
212 33 61
212 33 61
212 33 61
212 33 61
212 33 61
212 33 61
212 33 61
212 33 61
212 33 61
212 33 61
212 33 61
212 33 61
212 33 61
212 33 61
212 33 61
212 33 61
212 33 61
212 33 61
212 33 61
212 33 61
212 33 61
212 33 61
212 33 61
212 33 61
212 33 61
212 33 61
212 33 61
212 33 61
212 33 61
212 33 61
212 33 61
212 33 61
212 33 61
212 33 61
212 33 61
212 33 61
212 33 61
212 33 61
212 33 61
212 33 61
212 33 61
212 33 61
212 33 61
212 33 61
212 33 61
212 33 61
212 33 61
212 33 61
212 33 61
212 33 61
212 33 61
212 33 61
212 33 61
212 33 61
212 33 61
212 33 61
212 33 61
212 33 61
212 33 61
212 33 61
212 33 61
212 33 61
212 33 61
212 33 61
212 33 61
212 33 61
212 33 61
212 33 61
212 33 61
212 33 61
212 33 61
212 33 61
212 33 61
212 33 61
212 33 61
212 33 61
212 33 61
212 33 61
212 33 61
212 33 61
212 33 61
212 33 61
212 33 61
212 33 61
212 33 61
212 33 61
212 33 61
212 33 61
212 33 61
212 33 61
212 33 61
212 33 61
212 33 61
212 33 61
212 33 61
212 33 61
212 33 61
212 33 61
212 33 61
212 33 61
212 33 61
212 33 61
212 33 61
212 33 61
212 33 61
212 33 61
212 33 61
212 33 61
212 33 61
212 33 61
212 33 61
212 33 61
212 33 61
212 33 61
212 33 61
212 33 61
212 33 61
212 33 61
212 33 61
212 33 61
212 33 61
212 33 61
212 33 61
212 33 61
212 33 61
212 33 61
212 33 61
212 33 61
212 33 61
212 33 61
212 33 61
212 33 61
212 33 61
212 33 61
212 33 61
212 33 61
212 33 61
212 33 61
212 33 61
212 33 61
212 33 61
212 33 61
212 33 61
212 33 61
212 33 61
212 33 61
212 33 61
212 33 61
212 33 61
212 33 61
212 33 61
212 33 61
212 33 61
212 33 61
212 33 61
212 33 61
212 33 61
212 33 61
212 33 61
212 33 61
212 33 61
212 33 61
212 33 61
212 33 61
212 33 61
212 33 61
212 33 61
212 33 61
212 33 61
212 33 61
212 33 61
212 33 61
212 33 61
212 33 61
212 33 61
212 33 61
212 33 61
212 33 61
212 33 61
212 33 61
212 33 61
212 33 61
212 33 61
212 33 61
212 33 61
212 33 61
212 33 61
212 33 61
212 33 61
212 33 61
212 33 61
212 33 61
212 33 61
212 33 61
212 33 61
212 33 61
212 33 61
212 33 61
212 33 61
212 33 61
212 33 61
212 33 61
212 33 61
212 33 61
212 33 61
212 33 61
212 33 61
212 33 61
212 33 61
212 33 61
212 33 61
212 33 61
212 33 61
212 33 61
212 33 61
212 33 61
212 33 61
212 33 61
212 33 61
212 33 61
212 33 61
212 33 61
212 33 61
212 33 61
212 33 61
212 33 61
212 33 61
212 33 61
212 33 61
212 33 61
212 33 61
212 33 61
212 33 61
212 33 61
212 33 61
212 33 61
212 33 61
212 33 61
212 33 61
212 33 61
212 33 61
212 33 61
212 33 61
212 33 61
212 33 61
212 33 61
212 33 61
212 33 61
212 33 61
212 33 61
212 33 61
212 33 61
212 33 61
212 33 61
212 33 61
212 33 61
212 33 61
212 33 61
212 33 61
212 33 61
212 33 61
212 33 61
212 33 61
212 33 61
212 33 61
212 33 61
212 33 61
212 33 61
212 33 61
212 33 61
212 33 61
212 33 61
212 33 61
212 33 61
212 33 61
212 33 61
212 33 61
212 33 61
212 33 61
212 33 61
212 33 61
212 33 61
212 33 61
212 33 61
212 33 61
212 33 61
212 33 61
212 33 61
212 33 61
212 33 61
212 33 61
212 33 61
212 33 61
212 33 61
212 33 61
212 33 61
212 33 61
212 33 61
212 33 61
212 33 61
212 33 61
212 33 61
212 33 61
212 33 61
212 33 61
212 33 61
212 33 61
212 33 61
212 33 61
212 33 61
212 33 61
212 33 61
212 33 61
212 33 61
212 33 61
212 33 61
212 33 61
212 33 61
212 33 61
212 33 61
212 33 61
212 33 61
212 33 61
212 33 61
212 33 61
212 33 61
212 33 61
212 33 61
212 33 61
212 33 61
212 33 61
212 33 61
212 33 61
212 33 61
212 33 61
212 33 61
212 33 61
212 33 61
212 33 61
212 33 61
212 33 61
212 33 61
212 33 61
212 33 61
212 33 61
212 33 61
212 33 61
212 33 61
212 33 61
212 33 61
212 33 61
212 33 61
212 33 61
212 33 61
212 33 61
212 33 61
212 33 61
212 33 61
212 33 61
212 33 61
212 33 61
212 33 61
212 33 61
212 33 61
212 33 61
212 33 61
212 33 61
212 33 61
212 33 61
212 33 61
212 33 61
212 33 61
212 33 61
212 33 61
212 33 61
212 33 61
212 33 61
212 33 61
212 33 61
212 33 61
212 33 61
212 33 61
212 33 61
212 33 61
212 33 61
212 33 61
212 33 61
212 33 61
212 33 61
212 33 61
212 33 61
212 33 61
212 33 61
212 33 61
212 33 61
212 33 61
212 33 61
212 33 61
212 33 61
212 33 61
212 33 61
212 33 61
212 33 61
212 33 61
212 33 61
212 33 61
212 33 61
212 33 61
212 33 61
212 33 61
212 33 61
212 33 61
212 33 61
212 33 61
212 33 61
212 33 61
212 33 61
212 33 61
212 33 61
212 33 61
212 33 61
212 33 61
212 33 61
212 33 61
212 33 61
212 33 61
212 33 61
212 33 61
212 33 61
212 33 61
212 33 61
212 33 61
212 33 61
212 33 61
212 33 61
212 33 61
212 33 61
212 33 61
212 33 61
212 33 61
212 33 61
212 33 61
212 33 61
212 33 61
212 33 61
212 33 61
212 33 61
212 33 61
212 33 61
212 33 61
212 33 61
212 33 61
212 33 61
212 33 61
212 33 61
212 33 61
212 33 61
212 33 61
212 33 61
212 33 61
212 33 61
212 33 61
212 33 61
212 33 61
212 33 61
212 33 61
212 33 61
212 33 61
212 33 61
212 33 61
212 33 61
212 33 61
212 33 61
212 33 61
212 33 61
212 33 61
212 33 61
212 33 61
212 33 61
212 33 61
212 33 61
212 33 61
212 33 61
212 33 61
212 33 61
212 33 61
212 33 61
212 33 61
212 33 61
212 33 61
212 33 61
212 33 61
212 33 61
212 33 61
212 33 61
212 33 61
212 33 61
212 33 61
212 33 61
212 33 61
212 33 61
212 33 61
212 33 61
212 33 61
212 33 61
212 33 61
212 33 61
212 33 61
212 33 61
212 33 61
212 33 61
212 33 61
212 33 61
212 33 61
212 33 61
212 33 61
212 33 61
212 33 61
212 33 61
212 33 61
212 33 61
212 33 61
212 33 61
212 33 61
212 33 61
212 33 61
212 33 61
212 33 61
212 33 61
212 33 61
212 33 61
212 33 61
212 33 61
212 33 61
212 33 61
212 33 61
212 33 61
212 33 61
212 33 61
212 33 61
212 33 61
212 33 61
212 33 61
212 33 61
212 33 61
212 33 61
212 33 61
212 33 61
212 33 61
212 33 61
212 33 61
212 33 61
212 33 61
212 33 61
212 33 61
212 33 61
212 33 61
212 33 61
212 33 61
212 33 61
212 33 61
212 33 61
212 33 61
212 33 61
212 33 61
212 33 61
212 33 61
212 33 61
212 33 61
212 33 61
212 33 61
212 33 61
212 33 61
212 33 61
212 33 61
212 33 61
212 33 61
212 33 61
212 33 61
212 33 61
212 33 61
212 33 61
212 33 61
212 33 61
212 33 61
212 33 61
212 33 61
212 33 61
212 33 61
212 33 61
212 33 61
212 33 61
212 33 61
212 33 61
212 33 61
212 33 61
212 33 61
212 33 61
212 33 61
212 33 61
212 33 61
212 33 61
212 33 61
212 33 61
212 33 61
212 33 61
212 33 61
212 33 61
212 33 61
212 33 61
212 33 61
212 33 61
212 33 61
212 33 61
212 33 61
212 33 61
212 33 61
212 33 61
212 33 61
212 33 61
212 33 61
212 33 61
212 33 61
212 33 61
212 33 61
212 33 61
212 33 61
212 33 61
212 33 61
212 33 61
212 33 61
212 33 61
212 33 61
212 33 61
212 33 61
212 33 61
212 33 61
212 33 61
212 33 61
212 33 61
212 33 61
212 33 61
212 33 61
212 33 61
212 33 61
212 33 61
212 33 61
212 33 61
212 33 61
212 33 61
212 33 61
212 33 61
212 33 61
212 33 61
212 33 61
212 33 61
212 33 61
212 33 61
212 33 61
212 33 61
212 33 61
212 33 61
212 33 61
212 33 61
212 33 61
212 33 61
212 33 61
212 33 61
212 33 61
212 33 61
212 33 61
212 33 61
212 33 61
212 33 61
212 33 61
212 33 61
212 33 61
212 33 61
212 33 61
212 33 61
212 33 61
212 33 61
212 33 61
212 33 61
212 33 61
212 33 61
212 33 61
212 33 61
212 33 61
212 33 61
212 33 61
212 33 61
212 33 61
212 33 61
212 33 61
212 33 61
212 33 61
212 33 61
212 33 61
212 33 61
212 33 61
212 33 61
212 33 61
212 33 61
212 33 61
212 33 61
212 33 61
212 33 61
212 33 61
212 33 61
212 33 61
212 33 61
212 33 61
212 33 61
212 33 61
212 33 61
212 33 61
212 33 61
212 33 61
212 33 61
212 33 61
212 33 61
212 33 61
212 33 61
212 33 61
212 33 61
212 33 61
212 33 61
212 33 61
212 33 61
212 33 61
212 33 61
212 33 61
212 33 61
212 33 61
212 33 61
212 33 61
212 33 61
212 33 61
212 33 61
212 33 61
212 33 61
212 33 61
212 33 61
212 33 61
212 33 61
212 33 61
212 33 61
212 33 61
212 33 61
212 33 61
212 33 61
212 33 61
212 33 61
212 33 61
212 33 61
212 33 61
212 33 61
212 33 61
212 33 61
212 33 61
212 33 61
212 33 61
212 33 61
212 33 61
212 33 61
212 33 61
212 33 61
212 33 61
212 33 61
212 33 61
212 33 61
212 33 61
212 33 61
212 33 61
212 33 61
212 33 61
212 33 61
212 33 61
212 33 61
212 33 61
212 33 61
212 33 61
212 33 61
212 33 61
212 33 61
212 33 61
212 33 61
212 33 61
212 33 61
212 33 61
212 33 61
212 33 61
212 33 61
212 33 61
212 33 61
212 33 61
212 33 61
212 33 61
212 33 61
212 33 61
212 33 61
212 33 61
212 33 61
212 33 61
212 33 61
212 33 61
212 33 61
212 33 61
212 33 61
212 33 61
212 33 61
212 33 61
212 33 61
212 33 61
212 33 61
212 33 61
212 33 61
212 33 61
212 33 61
212 33 61
212 33 61
212 33 61
212 33 61
212 33 61
212 33 61
212 33 61
212 33 61
212 33 61
212 33 61
212 33 61
212 33 61
212 33 61
212 33 61
212 33 61
212 33 61
212 33 61
212 33 61
212 33 61
212 33 61
212 33 61
212 33 61
212 33 61
212 33 61
212 33 61
212 33 61
212 33 61
212 33 61
212 33 61
212 33 61
212 33 61
212 33 61
212 33 61
212 33 61
212 33 61
212 33 61
212 33 61
212 33 61
212 33 61
212 33 61
212 33 61
212 33 61
212 33 61
212 33 61
212 33 61
212 33 61
212 33 61
212 33 61
212 33 61
212 33 61
212 33 61
212 33 61
212 33 61
212 33 61
212 33 61
212 33 61
212 33 61
212 33 61
212 33 61
212 33 61
212 33 61
212 33 61
212 33 61
212 33 61
212 33 61
212 33 61
212 33 61
212 33 61
212 33 61
212 33 61
212 33 61
212 33 61
212 33 61
212 33 61
212 33 61
212 33 61
212 33 61
212 33 61
212 33 61
212 33 61
212 33 61
212 33 61
212 33 61
212 33 61
212 33 61
212 33 61
212 33 61
212 33 61
212 33 61
212 33 61
212 33 61
212 33 61
212 33 61
212 33 61
212 33 61
212 33 61
212 33 61
212 33 61
212 33 61
212 33 61
212 33 61
212 33 61
212 33 61
212 33 61
212 33 61
212 33 61
212 33 61
212 33 61
212 33 61
212 33 61
212 33 61
212 33 61
212 33 61
212 33 61
212 33 61
212 33 61
212 33 61
212 33 61
212 33 61
212 33 61
212 33 61
212 33 61
212 33 61
212 33 61
212 33 61
212 33 61
212 33 61
212 33 61
212 33 61
212 33 61
212 33 61
212 33 61
212 33 61
212 33 61
212 33 61
212 33 61
212 33 61
212 33 61
212 33 61
212 33 61
212 33 61
212 33 61
212 33 61
212 33 61
212 33 61
212 33 61
212 33 61
212 33 61
212 33 61
212 33 61
212 33 61
212 33 61
212 33 61
212 33 61
212 33 61
212 33 61
212 33 61
212 33 61
212 33 61
212 33 61
212 33 61
212 33 61
212 33 61
212 33 61
212 33 61
212 33 61
212 33 61
212 33 61
212 33 61
212 33 61
212 33 61
212 33 61
212 33 61
212 33 61
212 33 61
212 33 61
212 33 61
212 33 61
212 33 61
212 33 61
212 33 61
212 33 61
212 33 61
212 33 61
212 33 61
212 33 61
212 33 61
212 33 61
212 33 61
212 33 61
212 33 61
212 33 61
212 33 61
212 33 61
212 33 61
212 33 61
212 33 61
212 33 61
212 33 61
212 33 61
212 33 61
212 33 61
212 33 61
212 33 61
212 33 61
212 33 61
212 33 61
212 33 61
212 33 61
212 33 61
212 33 61
212 33 61
212 33 61
212 33 61
212 33 61
212 33 61
212 33 61
212 33 61
212 33 61
212 33 61
212 33 61
212 33 61
212 33 61
212 33 61
212 33 61
212 33 61
212 33 61
212 33 61
212 33 61
212 33 61
212 33 61
212 33 61
212 33 61
212 33 61
212 33 61
212 33 61
212 33 61
212 33 61
212 33 61
212 33 61
212 33 61
212 33 61
212 33 61
212 33 61
212 33 61
212 33 61
212 33 61
212 33 61
212 33 61
212 33 61
212 33 61
212 33 61
212 33 61
212 33 61
212 33 61
212 33 61
212 33 61
212 33 61
212 33 61
212 33 61
212 33 61
212 33 61
212 33 61
212 33 61
212 33 61
212 33 61
212 33 61
212 33 61
212 33 61
212 33 61
212 33 61
212 33 61
212 33 61
212 33 61
212 33 61
212 33 61
212 33 61
212 33 61
212 33 61
212 33 61
212 33 61
212 33 61
212 33 61
212 33 61
212 33 61
212 33 61
212 33 61
212 33 61
212 33 61
212 33 61
212 33 61
212 33 61
212 33 61
212 33 61
212 33 61
212 33 61
212 33 61
212 33 61
212 33 61
212 33 61
212 33 61
212 33 61
212 33 61
212 33 61
212 33 61
212 33 61
212 33 61
212 33 61
212 33 61
212 33 61
212 33 61
212 33 61
212 33 61
212 33 61
212 33 61
212 33 61
212 33 61
212 33 61
212 33 61
212 33 61
212 33 61
212 33 61
212 33 61
212 33 61
212 33 61
212 33 61
212 33 61
212 33 61
212 33 61
212 33 61
212 33 61
212 33 61
212 33 61
212 33 61
212 33 61
212 33 61
212 33 61
212 33 61
212 33 61
212 33 61
212 33 61
212 33 61
212 33 61
212 33 61
212 33 61
212 33 61
212 33 61
212 33 61
212 33 61
212 33 61
212 33 61
212 33 61
212 33 61
212 33 61
212 33 61
212 33 61
212 33 61
212 33 61
212 33 61
212 33 61
212 33 61
212 33 61
212 33 61
212 33 61
212 33 61
212 33 61
212 33 61
212 33 61
212 33 61
212 33 61
212 33 61
212 33 61
212 33 61
212 33 61
212 33 61
212 33 61
212 33 61
212 33 61
212 33 61
212 33 61
212 33 61
212 33 61
212 33 61
212 33 61
212 33 61
212 33 61
212 33 61
212 33 61
212 33 61
212 33 61
212 33 61
212 33 61
212 33 61
212 33 61
212 33 61
212 33 61
212 33 61
212 33 61
212 33 61
212 33 61
212 33 61
212 33 61
212 33 61
212 33 61
212 33 61
212 33 61
212 33 61
212 33 61
212 33 61
212 33 61
212 33 61
212 33 61
212 33 61
212 33 61
212 33 61
212 33 61
212 33 61
212 33 61
212 33 61
212 33 61
212 33 61
212 33 61
212 33 61
212 33 61
212 33 61
212 33 61
212 33 61
212 33 61
212 33 61
212 33 61
212 33 61
212 33 61
212 33 61
212 33 61
212 33 61
212 33 61
212 33 61
212 33 61
212 33 61
212 33 61
212 33 61
212 33 61
212 33 61
212 33 61
212 33 61
212 33 61
212 33 61
212 33 61
212 33 61
212 33 61
212 33 61
212 33 61
212 33 61
212 33 61
212 33 61
212 33 61
212 33 61
212 33 61
212 33 61
212 33 61
212 33 61
212 33 61
212 33 61
212 33 61
212 33 61
212 33 61
212 33 61
212 33 61
212 33 61
212 33 61
212 33 61
212 33 61
212 33 61
212 33 61
212 33 61
212 33 61
212 33 61
212 33 61
212 33 61
212 33 61
212 33 61
212 33 61
212 33 61
212 33 61
212 33 61
212 33 61
212 33 61
212 33 61
212 33 61
212 33 61
212 33 61
212 33 61
212 33 61
212 33 61
212 33 61
212 33 61
212 33 61
212 33 61
212 33 61
212 33 61
212 33 61
212 33 61
212 33 61
212 33 61
212 33 61
212 33 61
212 33 61
212 33 61
212 33 61
212 33 61
212 33 61
212 33 61
212 33 61
212 33 61
212 33 61
212 33 61
212 33 61
212 33 61
212 33 61
212 33 61
212 33 61
212 33 61
212 33 61
212 33 61
212 33 61
212 33 61
212 33 61
212 33 61
212 33 61
212 33 61
212 33 61
212 33 61
212 33 61
212 33 61
212 33 61
212 33 61
212 33 61
212 33 61
212 33 61
212 33 61
212 33 61
212 33 61
212 33 61
212 33 61
212 33 61
212 33 61
212 33 61
212 33 61
212 33 61
212 33 61
212 33 61
212 33 61
212 33 61
212 33 61
212 33 61
212 33 61
212 33 61
212 33 61
212 33 61
212 33 61
212 33 61
212 33 61
212 33 61
212 33 61
212 33 61
212 33 61
212 33 61
212 33 61
212 33 61
212 33 61
212 33 61
212 33 61
212 33 61
212 33 61
212 33 61
212 33 61
212 33 61
212 33 61
212 33 61
212 33 61
212 33 61
212 33 61
212 33 61
212 33 61
212 33 61
212 33 61
212 33 61
212 33 61
212 33 61
212 33 61
212 33 61
212 33 61
212 33 61
212 33 61
212 33 61
212 33 61
212 33 61
212 33 61
212 33 61
212 33 61
212 33 61
212 33 61
212 33 61
212 33 61
212 33 61
212 33 61
212 33 61
212 33 61
212 33 61
212 33 61
212 33 61
212 33 61
212 33 61
212 33 61
212 33 61
212 33 61
212 33 61
212 33 61
212 33 61
212 33 61
212 33 61
212 33 61
212 33 61
212 33 61
212 33 61
212 33 61
212 33 61
212 33 61
212 33 61
212 33 61
212 33 61
212 33 61
212 33 61
212 33 61
212 33 61
212 33 61
212 33 61
212 33 61
212 33 61
212 33 61
212 33 61
212 33 61
212 33 61
212 33 61
212 33 61
212 33 61
212 33 61
212 33 61
212 33 61
212 33 61
212 33 61
212 33 61
212 33 61
212 33 61
212 33 61
212 33 61
212 33 61
212 33 61
212 33 61
212 33 61
212 33 61
212 33 61
212 33 61
212 33 61
212 33 61
212 33 61
212 33 61
212 33 61
212 33 61
212 33 61
212 33 61
212 33 61
212 33 61
212 33 61
212 33 61
212 33 61
212 33 61
212 33 61
212 33 61
212 33 61
212 33 61
212 33 61
212 33 61
212 33 61
212 33 61
212 33 61
212 33 61
212 33 61
212 33 61
212 33 61
212 33 61
212 33 61
212 33 61
212 33 61
212 33 61
212 33 61
212 33 61
212 33 61
212 33 61
212 33 61
212 33 61
212 33 61
212 33 61
212 33 61
212 33 61
212 33 61
212 33 61
212 33 61
212 33 61
212 33 61
212 33 61
212 33 61
212 33 61
212 33 61
212 33 61
212 33 61
212 33 61
212 33 61
212 33 61
212 33 61
212 33 61
212 33 61
212 33 61
212 33 61
212 33 61
212 33 61
212 33 61
212 33 61
212 33 61
212 33 61
212 33 61
212 33 61
212 33 61
212 33 61
212 33 61
